# xmcd
# 
# Track frame offsets:
#     150
#     28092
#     45718
#     60926
#     78401
#     91124
#     113941
#     130271
#     150401
#     166597
#     184107
#     202022
#     217377
#     228559
#     242853
#     263147
# 
# Disc length: 3668
# 
# Revision: 0
# Processed by: cddbd v1.5.2PL0 Copyright (c) Steve Scherf et al.
# Submitted via: fre:ac v1.0.31
# 
DISCID=d70e5210
DTITLE=Various Artist - Åmål's Blues Fest 2019
DYEAR=2019
DGENRE=Blues
TTITLE0=Dawn Tyler Watson (feat. Steve Marriner) - Alligator
TTITLE1=The Reverend Peyton's Big Damn Band - Poor Until Payday
TTITLE2=The Alabama Lovesnakes - Somebody Call A Doctor
TTITLE3=JW-Jones Blues Band - Don't Sugar Coat It
TTITLE4=The Alabama Lovesnakes - Too Close Together
TTITLE5=The Alabama Lovesnakes - port arthur6
TTITLE6=Dawn Tyler Watson - Love To Burn
TTITLE7=Katarina Pejak - Moonlight Rider
TTITLE8=The Alabama Lovesnakes - Cold Hearted Woman
TTITLE9=JW-Jones Blues Band - Don't Tease Me
TTITLE10=JW-Jones Blues Band - You Forgot To Come Back
TTITLE11=The Alabama Lovesnakes - port arthur7
TTITLE12=The Reverend Peyton's Big Damn Band - It Is or It Ain't
TTITLE13=The Alabama Lovesnakes - Train Fare Home
TTITLE14=Katarina Pejak - Turtle Blues
TTITLE15=The Alabama Lovesnakes - I Wouldn´t Last One Day
EXTD=
EXTT0=
EXTT1=
EXTT2=
EXTT3=
EXTT4=
EXTT5=
EXTT6=
EXTT7=
EXTT8=
EXTT9=
EXTT10=
EXTT11=
EXTT12=
EXTT13=
EXTT14=
EXTT15=
PLAYORDER=
